simulation
nRows=37
nColumns=15
endheader
time  TH_x TH_y TH_z SC_y  SC_z  SC_x  AC_y  AC_z  AC_x  GH_y  GH_z  GH_yy  EL_x  PS_y
0.500022  0.000000  0.000000  0.000000  -42.980458  0.544708  -10.000000  46.941926  51.029864  27.852374  -1.582879  31.112137  21.255225  25.805123  124.249432
0.500066  0.000000  0.000000  0.000000  -42.980458  0.544708  -6.842105  49.438604  48.675262  24.587182  -1.582879  31.112137  21.255225  25.805123  124.249432
0.500111  0.000000  0.000000  0.000000  -42.980458  0.544708  -3.684211  51.626479  46.236725  21.618551  -1.582879  31.112137  21.255225  25.805123  124.249432
0.500155  0.000000  0.000000  0.000000  -42.980458  0.544708  -0.526316  53.544541  43.727941  18.906080  -1.582879  31.112137  21.255225  25.805123  124.249432
0.500199  0.000000  0.000000  0.000000  -42.980458  0.544708  2.631579  55.226796  41.160211  16.414212  -1.582879  31.112137  21.255225  25.805123  124.249432
0.500243  0.000000  0.000000  0.000000  -42.980458  0.544708  5.789474  56.702523  38.542864  14.112058  -1.582879  31.112137  21.255225  25.805123  124.249432
0.500288  0.000000  0.000000  0.000000  -42.980458  0.544708  8.947368  57.996691  35.883624  11.972902  -1.582879  31.112137  21.255225  25.805123  124.249432
0.500332  0.000000  0.000000  0.000000  -42.980458  0.544708  12.105263  59.130488  33.188930  9.973696  -1.582879  31.112137  21.255225  25.805123  124.249432
0.500376  0.000000  0.000000  0.000000  -42.980458  0.544708  15.263158  60.121817  30.464205  8.094520  -1.582879  31.112137  21.255225  25.805123  124.249432
0.500420  0.000000  0.000000  0.000000  -42.980458  0.544708  18.421053  60.985728  27.714003  6.318159  -1.582879  31.112137  21.255225  25.805123  124.249432
0.500465  0.000000  0.000000  0.000000  -42.980458  0.544708  21.578947  61.734895  24.942249  4.629563  -1.582879  31.112137  21.255225  25.805123  124.249432
0.500509  0.000000  0.000000  0.000000  -42.980458  0.544708  24.736842  62.379931  22.152310  3.015556  -1.582879  31.112137  21.255225  25.805123  124.249432
0.500553  0.000000  0.000000  0.000000  -42.980458  0.544708  27.894737  62.929652  19.347112  1.464498  -1.582879  31.112137  21.255225  25.805123  124.249432
0.500597  0.000000  0.000000  0.000000  -42.980458  0.544708  31.052632  63.391322  16.529235  -0.033960  -1.582879  31.112137  21.255225  25.805123  124.249432
0.500642  0.000000  0.000000  0.000000  -42.980458  0.544708  34.210526  63.770925  13.700977  -1.489210  -1.582879  31.112137  21.255225  25.805123  124.249432
0.500686  0.000000  0.000000  0.000000  -42.980458  0.544708  37.368421  64.073243  10.864418  -2.909784  -1.582879  31.112137  21.255225  25.805123  124.249432
0.500730  0.000000  0.000000  0.000000  -42.980458  0.544708  40.526316  64.301990  8.021461  -4.303554  -1.582879  31.112137  21.255225  25.805123  124.249432
0.500774  0.000000  0.000000  0.000000  -42.980458  0.544708  43.684211  64.459957  5.173883  -5.677939  -1.582879  31.112137  21.255225  25.805123  124.249432
0.500819  0.000000  0.000000  0.000000  -42.980458  0.544708  46.842105  64.549039  2.323371  -7.039999  -1.582879  31.112137  21.255225  25.805123  124.249432
0.500863  0.000000  0.000000  0.000000  -42.980458  0.544708  50.000000  64.570295  -0.528443  -8.396565  -1.582879  31.112137  21.255225  25.805123  124.249432
0.500907  0.000000  0.000000  0.000000  -48.499849  2.032314  -10.000000  36.023002  60.348258  40.762214  -31.680572  25.361686  6.063835  26.843296  127.915765
0.500951  0.000000  0.000000  0.000000  -48.499849  2.032314  -6.842105  40.221173  58.397158  35.884912  -31.680572  25.361686  6.063835  26.843296  127.915765
0.500996  0.000000  0.000000  0.000000  -48.499849  2.032314  -3.684211  43.880729  56.280653  31.539361  -31.680572  25.361686  6.063835  26.843296  127.915765
0.501040  0.000000  0.000000  0.000000  -48.499849  2.032314  -0.526316  47.062801  54.028225  27.663304  -31.680572  25.361686  6.063835  26.843296  127.915765
0.501084  0.000000  0.000000  0.000000  -48.499849  2.032314  2.631579  49.828105  51.664145  24.194860  -31.680572  25.361686  6.063835  26.843296  127.915765
0.501128  0.000000  0.000000  0.000000  -48.499849  2.032314  5.789474  52.232674  49.208153  21.076782  -31.680572  25.361686  6.063835  26.843296  127.915765
0.501173  0.000000  0.000000  0.000000  -48.499849  2.032314  8.947368  54.326067  46.676266  18.258221  -31.680572  25.361686  6.063835  26.843296  127.915765
0.501217  0.000000  0.000000  0.000000  -48.499849  2.032314  12.105263  56.151083  44.081407  15.695025  -31.680572  25.361686  6.063835  26.843296  127.915765
0.501261  0.000000  0.000000  0.000000  -48.499849  2.032314  15.263158  57.744081  41.434091  13.349389  -31.680572  25.361686  6.063835  26.843296  127.915765
0.501305  0.000000  0.000000  0.000000  -48.499849  2.032314  18.421053  59.135714  38.742897  11.189117  -31.680572  25.361686  6.063835  26.843296  127.915765
0.501350  0.000000  0.000000  0.000000  -48.499849  2.032314  21.578947  60.351642  36.014838  9.186904  -31.680572  25.361686  6.063835  26.843296  127.915765
0.501394  0.000000  0.000000  0.000000  -48.499849  2.032314  24.736842  61.413379  33.255743  7.319455  -31.680572  25.361686  6.063835  26.843296  127.915765
0.501438  0.000000  0.000000  0.000000  -48.499849  2.032314  27.894737  62.338849  30.470451  5.566934  -31.680572  25.361686  6.063835  26.843296  127.915765
0.501482  0.000000  0.000000  0.000000  -48.499849  2.032314  31.052632  63.142991  27.663040  3.912312  -31.680572  25.361686  6.063835  26.843296  127.915765
0.501527  0.000000  0.000000  0.000000  -48.499849  2.032314  34.210526  63.838262  24.836968  2.340880  -31.680572  25.361686  6.063835  26.843296  127.915765
0.501571  0.000000  0.000000  0.000000  -48.499849  2.032314  37.368421  64.434996  21.995203  0.839837  -31.680572  25.361686  6.063835  26.843296  127.915765
0.501615  0.000000  0.000000  0.000000  -48.499849  2.032314  40.526316  64.941740  19.140320  -0.602066  -31.680572  25.361686  6.063835  26.843296  127.915765
